<svg xmlns="http://www.w3.org/2000/svg" viewBox="0 0 128 128" width="128" height="128">
  <defs>
    <!-- Gradient for fortress -->
    <linearGradient id="fortressGrad" x1="0%" y1="0%" x2="0%" y2="100%">
      <stop offset="0%" style="stop-color:#5A9FE8"/>
      <stop offset="50%" style="stop-color:#4A90D9"/>
      <stop offset="100%" style="stop-color:#2C5282"/>
    </linearGradient>

    <!-- Gradient for arrows -->
    <linearGradient id="arrowGrad" x1="0%" y1="0%" x2="100%" y2="0%">
      <stop offset="0%" style="stop-color:#FFB86C"/>
      <stop offset="50%" style="stop-color:#F6AD55"/>
      <stop offset="100%" style="stop-color:#ED8936"/>
    </linearGradient>

    <!-- Glow filter for rollback arcs -->
    <filter id="glow" x="-50%" y="-50%" width="200%" height="200%">
      <feGaussianBlur stdDeviation="1.5" result="coloredBlur"/>
      <feMerge>
        <feMergeNode in="coloredBlur"/>
        <feMergeNode in="SourceGraphic"/>
      </feMerge>
    </filter>

  </defs>

  <!-- Background circle with subtle outline -->
  <circle cx="64" cy="64" r="60" fill="#1A365D" opacity="0.08"/>
  <circle cx="64" cy="64" r="59" fill="none" stroke="#2C5282" stroke-width="1" opacity="0.15"/>

  <!-- Fortress -->
  <g fill="url(#fortressGrad)">
    <!-- Left tower -->
    <rect x="28" y="48" width="16" height="48" rx="1"/>
    <!-- Left tower battlements -->
    <rect x="28" y="40" width="5" height="10"/>
    <rect x="37" y="40" width="5" height="10"/>

    <!-- Center tower (taller) -->
    <rect x="50" y="36" width="28" height="60" rx="1"/>
    <!-- Center tower battlements -->
    <rect x="50" y="28" width="7" height="12"/>
    <rect x="60" y="28" width="8" height="12"/>
    <rect x="71" y="28" width="7" height="12"/>

    <!-- Right tower -->
    <rect x="84" y="48" width="16" height="48" rx="1"/>
    <!-- Right tower battlements -->
    <rect x="86" y="40" width="5" height="10"/>
    <rect x="95" y="40" width="5" height="10"/>

    <!-- Base wall -->
    <rect x="28" y="90" width="72" height="6" rx="1"/>
  </g>

  <!-- Stone texture lines (subtle) -->
  <g stroke="#1A365D" stroke-width="0.5" opacity="0.12">
    <line x1="50" y1="55" x2="78" y2="55"/>
    <line x1="50" y1="75" x2="78" y2="75"/>
  </g>

  <!-- Gate -->
  <rect x="57" y="72" width="14" height="20" rx="7" ry="7" fill="#0D1B2A"/>
  <rect x="57" y="82" width="14" height="14" fill="#0D1B2A"/>

  <!-- Rollback arcs with glow (following circle edge) -->
  <g fill="none" stroke="url(#arrowGrad)" stroke-width="4" stroke-linecap="round" filter="url(#glow)">
    <!-- Left arc: from ~210째 to ~135째 -->
    <path d="M 12 94 A 60 60 0 0 1 22 22"/>
    <!-- Right arc: from ~30째 to ~315째 -->
    <path d="M 116 34 A 60 60 0 0 1 106 106"/>
  </g>

  <!-- R letter overlay on center tower (subtle) -->
  <text x="64" y="68"
        font-family="'Segoe UI', Arial, sans-serif"
        font-size="15"
        font-weight="bold"
        fill="#1A365D"
        text-anchor="middle"
        opacity="0.25">R</text>
</svg>
