<svg xmlns="http://www.w3.org/2000/svg" viewBox="0 0 512 512" width="512" height="512">
  <defs>
    <!-- Gradient for fortress -->
    <linearGradient id="fortressGrad" x1="0%" y1="0%" x2="0%" y2="100%">
      <stop offset="0%" style="stop-color:#5A9FE8"/>
      <stop offset="50%" style="stop-color:#4A90D9"/>
      <stop offset="100%" style="stop-color:#2C5282"/>
    </linearGradient>

    <!-- Gradient for arrows -->
    <linearGradient id="arrowGrad" x1="0%" y1="0%" x2="100%" y2="0%">
      <stop offset="0%" style="stop-color:#FFB86C"/>
      <stop offset="50%" style="stop-color:#F6AD55"/>
      <stop offset="100%" style="stop-color:#ED8936"/>
    </linearGradient>

    <!-- Glow filter for rollback arcs -->
    <filter id="glow" x="-50%" y="-50%" width="200%" height="200%">
      <feGaussianBlur stdDeviation="4" result="coloredBlur"/>
      <feMerge>
        <feMergeNode in="coloredBlur"/>
        <feMergeNode in="SourceGraphic"/>
      </feMerge>
    </filter>

    <!-- Shadow filter -->
    <filter id="shadow" x="-20%" y="-20%" width="140%" height="140%">
      <feDropShadow dx="2" dy="4" stdDeviation="4" flood-color="#1A365D" flood-opacity="0.3"/>
    </filter>

    <!-- Inner shadow for gate -->
    <filter id="innerShadow" x="-50%" y="-50%" width="200%" height="200%">
      <feComponentTransfer in="SourceAlpha">
        <feFuncA type="table" tableValues="1 0"/>
      </feComponentTransfer>
      <feGaussianBlur stdDeviation="3"/>
      <feOffset dx="2" dy="2" result="offsetblur"/>
      <feFlood flood-color="#0D1B2A" flood-opacity="0.6"/>
      <feComposite in2="offsetblur" operator="in"/>
      <feComposite in2="SourceAlpha" operator="in"/>
      <feMerge>
        <feMergeNode in="SourceGraphic"/>
        <feMergeNode/>
      </feMerge>
    </filter>

  </defs>

  <!-- Background circle with subtle gradient -->
  <circle cx="256" cy="256" r="240" fill="#1A365D" opacity="0.08"/>
  <circle cx="256" cy="256" r="238" fill="none" stroke="#2C5282" stroke-width="2" opacity="0.15"/>

  <!-- Fortress -->
  <g filter="url(#shadow)" fill="url(#fortressGrad)">
    <!-- Left tower -->
    <rect x="126" y="180" width="60" height="200" rx="3"/>
    <!-- Left tower battlements -->
    <rect x="126" y="160" width="18" height="30" rx="1"/>
    <rect x="152" y="160" width="18" height="30" rx="1"/>

    <!-- Center tower (taller) -->
    <rect x="216" y="140" width="80" height="240" rx="3"/>
    <!-- Center tower battlements -->
    <rect x="216" y="115" width="22" height="35" rx="1"/>
    <rect x="245" y="115" width="22" height="35" rx="1"/>
    <rect x="274" y="115" width="22" height="35" rx="1"/>

    <!-- Right tower -->
    <rect x="326" y="180" width="60" height="200" rx="3"/>
    <!-- Right tower battlements -->
    <rect x="342" y="160" width="18" height="30" rx="1"/>
    <rect x="368" y="160" width="18" height="30" rx="1"/>

    <!-- Base wall -->
    <rect x="126" y="360" width="260" height="20" rx="3"/>
  </g>

  <!-- Stone texture lines (subtle) -->
  <g stroke="#1A365D" stroke-width="1" opacity="0.12">
    <!-- Center tower lines -->
    <line x1="216" y1="200" x2="296" y2="200"/>
    <line x1="216" y1="260" x2="296" y2="260"/>
    <line x1="216" y1="320" x2="296" y2="320"/>
    <!-- Left tower lines -->
    <line x1="126" y1="230" x2="186" y2="230"/>
    <line x1="126" y1="290" x2="186" y2="290"/>
    <!-- Right tower lines -->
    <line x1="326" y1="230" x2="386" y2="230"/>
    <line x1="326" y1="290" x2="386" y2="290"/>
  </g>

  <!-- Gate with inner shadow -->
  <g filter="url(#innerShadow)">
    <rect x="231" y="300" width="50" height="80" rx="25" ry="25" fill="#0D1B2A"/>
    <rect x="231" y="325" width="50" height="55" fill="#0D1B2A"/>
  </g>

  <!-- Rollback arcs with glow (following circle edge) -->
  <g fill="none" stroke="url(#arrowGrad)" stroke-width="10" stroke-linecap="round" filter="url(#glow)">
    <!-- Left arc: from ~210째 to ~135째 (bottom-left to top-left) -->
    <path d="M 48 340 A 240 240 0 0 1 86 86"/>
    <!-- Right arc: from ~30째 to ~315째 (top-right to bottom-right) -->
    <path d="M 464 172 A 240 240 0 0 1 426 426"/>
  </g>

  <!-- R letter overlay on center tower (subtle) -->
  <text x="256" y="260"
        font-family="'Segoe UI', Arial, sans-serif"
        font-size="60"
        font-weight="bold"
        fill="#1A365D"
        text-anchor="middle"
        opacity="0.25">R</text>
</svg>
