<svg xmlns="http://www.w3.org/2000/svg" viewBox="0 0 800 200" width="800" height="200">
  <defs>
    <!-- Gradient for fortress -->
    <linearGradient id="fortressGrad" x1="0%" y1="0%" x2="0%" y2="100%">
      <stop offset="0%" style="stop-color:#4A90D9"/>
      <stop offset="100%" style="stop-color:#2C5282"/>
    </linearGradient>
    
    <!-- Gradient for arrows -->
    <linearGradient id="arrowGrad" x1="0%" y1="0%" x2="100%" y2="0%">
      <stop offset="0%" style="stop-color:#F6AD55"/>
      <stop offset="100%" style="stop-color:#ED8936"/>
    </linearGradient>
  </defs>
  
  <!-- Logo icon section -->
  <g transform="translate(30, 20)">
    <!-- Background circle -->
    <circle cx="80" cy="80" r="75" fill="#1A365D" opacity="0.1"/>
    
    <!-- Fortress -->
    <g fill="url(#fortressGrad)">
      <!-- Left tower -->
      <rect x="35" y="58" width="20" height="60" rx="1"/>
      <!-- Left tower battlements -->
      <rect x="35" y="48" width="6" height="14"/>
      <rect x="47" y="48" width="6" height="14"/>
      
      <!-- Center tower (taller) -->
      <rect x="61" y="40" width="38" height="78" rx="1"/>
      <!-- Center tower battlements -->
      <rect x="61" y="28" width="10" height="16"/>
      <rect x="75" y="28" width="10" height="16"/>
      <rect x="89" y="28" width="10" height="16"/>
      
      <!-- Right tower -->
      <rect x="105" y="58" width="20" height="60" rx="1"/>
      <!-- Right tower battlements -->
      <rect x="107" y="48" width="6" height="14"/>
      <rect x="119" y="48" width="6" height="14"/>
      
      <!-- Base wall -->
      <rect x="35" y="112" width="90" height="8" rx="1"/>
    </g>
    
    <!-- Gate -->
    <rect x="71" y="88" width="18" height="26" rx="9" ry="9" fill="#1A365D"/>
    <rect x="71" y="100" width="18" height="18" fill="#1A365D"/>
    
    <!-- Rollback arcs -->
    <g fill="none" stroke="url(#arrowGrad)" stroke-width="6" stroke-linecap="round">
      <path d="M 15 80 A 65 65 0 0 1 48 28"/>
      <path d="M 145 80 A 65 65 0 0 1 112 132"/>
    </g>
    
    <!-- R letter overlay on center tower (subtle) -->
    <text x="80" y="78" 
          font-family="Arial, sans-serif" 
          font-size="20" 
          font-weight="bold" 
          fill="#1A365D" 
          text-anchor="middle" 
          opacity="0.3">R</text>
  </g>
  
  <!-- Text section -->
  <g>
    <text x="220" y="95" 
          font-family="'Segoe UI', Roboto, 'Helvetica Neue', Arial, sans-serif" 
          font-size="52" 
          font-weight="700" 
          fill="#2C5282">
      fortress
    </text>
    <text x="220" y="145" 
          font-family="'Segoe UI', Roboto, 'Helvetica Neue', Arial, sans-serif" 
          font-size="42" 
          font-weight="400" 
          fill="#ED8936">
      rollback
    </text>
  </g>
  
  <!-- Tagline -->
  <text x="220" y="175" 
        font-family="'Segoe UI', Roboto, 'Helvetica Neue', Arial, sans-serif" 
        font-size="14" 
        fill="#4A5568"
        letter-spacing="2">
    SAFE RUST ROLLBACK NETCODE
  </text>
  
  <!-- Decorative Rust gear icon hint -->
  <g transform="translate(680, 85)" fill="#ED8936" opacity="0.3">
    <circle cx="30" cy="30" r="18" fill="none" stroke="#ED8936" stroke-width="4"/>
    <circle cx="30" cy="30" r="8" fill="#ED8936"/>
    <!-- Gear teeth -->
    <rect x="26" y="4" width="8" height="12" rx="2"/>
    <rect x="26" y="44" width="8" height="12" rx="2"/>
    <rect x="4" y="26" width="12" height="8" rx="2"/>
    <rect x="44" y="26" width="12" height="8" rx="2"/>
  </g>
</svg>
