<svg xmlns="http://www.w3.org/2000/svg" viewBox="0 0 128 128" width="128" height="128">
  <defs>
    <!-- Gradient for fortress -->
    <linearGradient id="fortressGrad" x1="0%" y1="0%" x2="0%" y2="100%">
      <stop offset="0%" style="stop-color:#4A90D9"/>
      <stop offset="100%" style="stop-color:#2C5282"/>
    </linearGradient>
    
    <!-- Gradient for arrows -->
    <linearGradient id="arrowGrad" x1="0%" y1="0%" x2="100%" y2="0%">
      <stop offset="0%" style="stop-color:#F6AD55"/>
      <stop offset="100%" style="stop-color:#ED8936"/>
    </linearGradient>
  </defs>
  
  <!-- Background circle -->
  <circle cx="64" cy="64" r="60" fill="#1A365D" opacity="0.1"/>
  
  <!-- Fortress -->
  <g fill="url(#fortressGrad)">
    <!-- Left tower -->
    <rect x="28" y="48" width="16" height="48" rx="1"/>
    <!-- Left tower battlements -->
    <rect x="28" y="40" width="5" height="10"/>
    <rect x="37" y="40" width="5" height="10"/>
    
    <!-- Center tower (taller) -->
    <rect x="50" y="36" width="28" height="60" rx="1"/>
    <!-- Center tower battlements -->
    <rect x="50" y="28" width="7" height="12"/>
    <rect x="60" y="28" width="8" height="12"/>
    <rect x="71" y="28" width="7" height="12"/>
    
    <!-- Right tower -->
    <rect x="84" y="48" width="16" height="48" rx="1"/>
    <!-- Right tower battlements -->
    <rect x="86" y="40" width="5" height="10"/>
    <rect x="95" y="40" width="5" height="10"/>
    
    <!-- Base wall -->
    <rect x="28" y="90" width="72" height="6" rx="1"/>
  </g>
  
  <!-- Gate -->
  <rect x="57" y="72" width="14" height="20" rx="7" ry="7" fill="#1A365D"/>
  <rect x="57" y="82" width="14" height="14" fill="#1A365D"/>
  
  <!-- Rollback arcs -->
  <g fill="none" stroke="url(#arrowGrad)" stroke-width="5" stroke-linecap="round">
    <path d="M 20 64 A 44 44 0 0 1 44 28"/>
    <path d="M 108 64 A 44 44 0 0 1 84 100"/>
  </g>
  
  <!-- R letter overlay on center tower (subtle) -->
  <text x="64" y="68" 
        font-family="Arial, sans-serif" 
        font-size="15" 
        font-weight="bold" 
        fill="#1A365D" 
        text-anchor="middle" 
        opacity="0.3">R</text>
</svg>
