<svg xmlns="http://www.w3.org/2000/svg" viewBox="0 0 128 128" width="128" height="128">
  <defs>
    <linearGradient id="fg" x1="0%" y1="0%" x2="0%" y2="100%">
      <stop offset="0%" style="stop-color:#4A90D9"/>
      <stop offset="100%" style="stop-color:#2C5282"/>
    </linearGradient>
    <linearGradient id="ag" x1="0%" y1="0%" x2="100%" y2="0%">
      <stop offset="0%" style="stop-color:#F6AD55"/>
      <stop offset="100%" style="stop-color:#ED8936"/>
    </linearGradient>
  </defs>
  
  <!-- Background -->
  <circle cx="64" cy="64" r="60" fill="#1A365D"/>
  
  <!-- Fortress simplified -->
  <g fill="url(#fg)">
    <!-- Left tower -->
    <rect x="28" y="50" width="18" height="45"/>
    <rect x="28" y="42" width="6" height="12"/>
    <rect x="40" y="42" width="6" height="12"/>
    
    <!-- Center tower -->
    <rect x="50" y="38" width="28" height="57"/>
    <rect x="50" y="28" width="8" height="14"/>
    <rect x="60" y="28" width="8" height="14"/>
    <rect x="70" y="28" width="8" height="14"/>
    
    <!-- Right tower -->
    <rect x="82" y="50" width="18" height="45"/>
    <rect x="82" y="42" width="6" height="12"/>
    <rect x="94" y="42" width="6" height="12"/>
    
    <!-- Base -->
    <rect x="28" y="90" width="72" height="8" rx="2"/>
  </g>
  
  <!-- Gate -->
  <rect x="58" y="72" width="12" height="18" rx="6" ry="6" fill="#1A365D"/>
  <rect x="58" y="78" width="12" height="12" fill="#1A365D"/>
  
  <!-- Rollback arcs (without arrow heads) -->
  <g fill="none" stroke="url(#ag)" stroke-width="5" stroke-linecap="round">
    <path d="M 20 64 A 44 44 0 0 1 44 28"/>
    <path d="M 108 64 A 44 44 0 0 1 84 100"/>
  </g>
</svg>
